<?xml version="1.0" encoding="UTF-8"?>
<svg xmlns="http://www.w3.org/2000/svg" version="1.1" viewBox="0 0 50 50">
  <defs>
    <style>
      .cls-1 {
        fill: #fff;
      }
    </style>
  </defs>
  <!-- Generator: Adobe Illustrator 28.7.1, SVG Export Plug-In . SVG Version: 1.2.0 Build 142)  -->
  <g>
    <g id="Layer_1">
      <path class="cls-1" d="M11,4c-3.9,0-7,3.1-7,7v28c0,3.9,3.1,7,7,7h28c3.9,0,7-3.1,7-7V11c0-3.9-3.1-7-7-7H11ZM13.1,13h7.9l5.6,8,6.8-8h2.5l-8.2,9.6,10.1,14.4h-7.9l-6.5-9.3-7.9,9.3h-2.5l9.3-10.9-9.2-13.1ZM16.9,15l14.1,20h3.1l-14.1-20h-3.1Z"/>
    </g>
  </g>
</svg>